# xmcd CD database file
#
# Track frame offsets:
#	150
#	10009
#	26689
#	41345
#	53174
#	66266
#	79194
#	91140
#	105969
#	123549
#	135677
#	148376
#	161264
#	173645
#	190882
#	202445
#	216255
#
# Disc length: 3056 seconds
#
# Revision: 1
# Processed by: cddbd v1.5.2PL0 Copyright (c) Steve Scherf et al.
# Submitted via: CDex 1.70beta2
#
DISCID=ee0bee11
DTITLE=Franck Sinatra - Tribute to
DYEAR=2008
DGENRE=Jazz
TTITLE0=Chicago
TTITLE1=I've got under my skin
TTITLE2=The lady is a tramp
TTITLE3=Love and marriage
TTITLE4=You make me feel so young
TTITLE5=Swingin' down tha lane
TTITLE6=Love is here to stay
TTITLE7=Come fly with me
TTITLE8=Old devil moon
TTITLE9=Pennies from heaven
TTITLE10=Young at heart
TTITLE11=Witchcraft
TTITLE12=How about you
TTITLE13=It's nice to go travelling
TTITLE14=It happened in Monterey
TTITLE15=Three coins in the fountain
TTITLE16=All the way
EXTD=YEAR: 2008
EXTT0=
EXTT1=
EXTT2=
EXTT3=
EXTT4=
EXTT5=
EXTT6=
EXTT7=
EXTT8=
EXTT9=
EXTT10=
EXTT11=
EXTT12=
EXTT13=
EXTT14=
EXTT15=
EXTT16=
PLAYORDER=
